<svg version="1.1" xmlns="http://www.w3.org/2000/svg" xmlns:xlink="http://www.w3.org/1999/xlink" width="940" height="704"><defs/><g><g transform="translate(-142,-206) scale(1,1)"><rect fill="#C0C0C0" stroke="none" x="527" y="239" width="168" height="112" opacity="0.2"/></g><g transform="translate(-142,-206) scale(1,1)"><rect fill="#ffffff" stroke="none" x="520" y="232" width="168" height="112"/></g><g transform="translate(-142,-206) scale(1,1)"><path fill="none" stroke="#000000" d="M 520 232 L 688 232 L 688 344 L 520 344 L 520 232 Z Z" stroke-miterlimit="10"/></g><g transform="translate(-142,-206) scale(1,1)"><path fill="none" stroke="#000000" d="M 520 257 L 688 257" stroke-miterlimit="10"/></g><g transform="translate(-142,-206) scale(1,1)"><path fill="none" stroke="#000000" d="M 520 267 L 688 267" stroke-miterlimit="10"/></g><g transform="translate(-142,-206) scale(1,1)"><g><path fill="none" stroke="none"/><text fill="#000000" stroke="none" font-family="Arial" font-size="13px" font-style="normal" font-weight="bold" text-decoration="none" x="586" y="251.5">Match</text></g></g><g transform="translate(-142,-206) scale(1,1)"><g><path fill="none" stroke="none"/><text fill="#000000" stroke="none" font-family="Arial" font-size="13px" font-style="normal" font-weight="normal" text-decoration="none" x="525" y="284.5">+playMatch()</text></g></g><g transform="translate(-142,-206) scale(1,1)"><g><path fill="none" stroke="none"/><text fill="#000000" stroke="none" font-family="Arial" font-size="13px" font-style="normal" font-weight="normal" text-decoration="none" x="525" y="299.5">+showMatchInfo()</text></g></g><g transform="translate(-142,-206) scale(1,1)"><g><path fill="none" stroke="none"/><text fill="#000000" stroke="none" font-family="Arial" font-size="13px" font-style="normal" font-weight="normal" text-decoration="none" x="525" y="314.5">+getMatchResult()</text></g></g><g transform="translate(-142,-206) scale(1,1)"><rect fill="#C0C0C0" stroke="none" x="527" y="559" width="168" height="115" opacity="0.2"/></g><g transform="translate(-142,-206) scale(1,1)"><rect fill="#ffffff" stroke="none" x="520" y="552" width="168" height="115"/></g><g transform="translate(-142,-206) scale(1,1)"><path fill="none" stroke="#000000" d="M 520 552 L 688 552 L 688 667 L 520 667 L 520 552 Z Z" stroke-miterlimit="10"/></g><g transform="translate(-142,-206) scale(1,1)"><path fill="none" stroke="#000000" d="M 520 577 L 688 577" stroke-miterlimit="10"/></g><g transform="translate(-142,-206) scale(1,1)"><path fill="none" stroke="#000000" d="M 520 615 L 688 615" stroke-miterlimit="10"/></g><g transform="translate(-142,-206) scale(1,1)"><g><path fill="none" stroke="none"/><text fill="#000000" stroke="none" font-family="Arial" font-size="13px" font-style="normal" font-weight="bold" text-decoration="none" x="564" y="571.5">NationalTeam</text></g></g><g transform="translate(-142,-206) scale(1,1)"><g><path fill="none" stroke="none"/><text fill="#000000" stroke="none" font-family="Arial" font-size="13px" font-style="normal" font-weight="normal" text-decoration="none" x="525" y="594.5">+players</text></g></g><g transform="translate(-142,-206) scale(1,1)"><g><path fill="none" stroke="none"/><text fill="#000000" stroke="none" font-family="Arial" font-size="13px" font-style="normal" font-weight="normal" text-decoration="none" x="525" y="609.5">+match_summeries</text></g></g><g transform="translate(-142,-206) scale(1,1)"><g><path fill="none" stroke="none"/><text fill="#000000" stroke="none" font-family="Arial" font-size="13px" font-style="normal" font-weight="normal" text-decoration="none" x="525" y="632.5">+getStarters()</text></g></g><g transform="translate(-142,-206) scale(1,1)"><g><path fill="none" stroke="none"/><text fill="#000000" stroke="none" font-family="Arial" font-size="13px" font-style="normal" font-weight="normal" text-decoration="none" x="525" y="647.5">+getFinalPlayers()</text></g></g><g transform="translate(-142,-206) scale(1,1)"><g><path fill="none" stroke="none"/><text fill="#000000" stroke="none" font-family="Arial" font-size="13px" font-style="normal" font-weight="normal" text-decoration="none" x="525" y="662.5">+loadPlayers()</text></g></g><g transform="translate(-142,-206) scale(1,1)"><rect fill="#C0C0C0" stroke="none" x="527" y="807" width="168" height="100" opacity="0.2"/></g><g transform="translate(-142,-206) scale(1,1)"><rect fill="#ffffff" stroke="none" x="520" y="800" width="168" height="100"/></g><g transform="translate(-142,-206) scale(1,1)"><path fill="none" stroke="#000000" d="M 520 800 L 688 800 L 688 900 L 520 900 L 520 800 Z Z" stroke-miterlimit="10"/></g><g transform="translate(-142,-206) scale(1,1)"><path fill="none" stroke="#000000" d="M 520 825 L 688 825" stroke-miterlimit="10"/></g><g transform="translate(-142,-206) scale(1,1)"><path fill="none" stroke="#000000" d="M 520 835 L 688 835" stroke-miterlimit="10"/></g><g transform="translate(-142,-206) scale(1,1)"><g><path fill="none" stroke="none"/><text fill="#000000" stroke="none" font-family="Arial" font-size="13px" font-style="normal" font-weight="bold" text-decoration="none" x="585.5" y="819.5">Player</text></g></g><g transform="translate(-142,-206) scale(1,1)"><g><path fill="none" stroke="none"/><text fill="#000000" stroke="none" font-family="Arial" font-size="13px" font-style="normal" font-weight="normal" text-decoration="none" x="525" y="852.5">+getRoleString()</text></g></g><g transform="translate(-142,-206) scale(1,1)"><g><path fill="none" stroke="none"/><text fill="#000000" stroke="none" font-family="Arial" font-size="13px" font-style="normal" font-weight="normal" text-decoration="none" x="525" y="867.5">+getPower()</text></g></g><g transform="translate(-142,-206) scale(1,1)"><rect fill="#C0C0C0" stroke="none" x="223" y="231" width="160" height="117" opacity="0.2"/></g><g transform="translate(-142,-206) scale(1,1)"><rect fill="#ffffff" stroke="none" x="216" y="224" width="160" height="117"/></g><g transform="translate(-142,-206) scale(1,1)"><path fill="none" stroke="#000000" d="M 216 224 L 376 224 L 376 341 L 216 341 L 216 224 Z Z" stroke-miterlimit="10"/></g><g transform="translate(-142,-206) scale(1,1)"><path fill="none" stroke="#000000" d="M 216 249 L 376 249" stroke-miterlimit="10"/></g><g transform="translate(-142,-206) scale(1,1)"><path fill="none" stroke="#000000" d="M 216 259 L 376 259" stroke-miterlimit="10"/></g><g transform="translate(-142,-206) scale(1,1)"><g><path fill="none" stroke="none"/><text fill="#000000" stroke="none" font-family="Arial" font-size="13px" font-style="normal" font-weight="bold" text-decoration="none" x="272.5" y="243.5">RandLib</text></g></g><g transform="translate(-142,-206) scale(1,1)"><g><path fill="none" stroke="none"/><text fill="#000000" stroke="none" font-family="Arial" font-size="13px" font-style="normal" font-weight="normal" text-decoration="none" x="221" y="276.5">+binomial_rand()</text></g></g><g transform="translate(-142,-206) scale(1,1)"><g><path fill="none" stroke="none"/><text fill="#000000" stroke="none" font-family="Arial" font-size="13px" font-style="normal" font-weight="normal" text-decoration="none" x="221" y="291.5">+binomial_rand(p: double)</text></g></g><g transform="translate(-142,-206) scale(1,1)"><g><path fill="none" stroke="none"/><text fill="#000000" stroke="none" font-family="Arial" font-size="13px" font-style="normal" font-weight="normal" text-decoration="none" x="221" y="306.5">+normal_rand()</text></g></g><g transform="translate(-142,-206) scale(1,1)"><g><path fill="none" stroke="none"/><text fill="#000000" stroke="none" font-family="Arial" font-size="13px" font-style="normal" font-weight="normal" text-decoration="none" x="221" y="321.5">+uniform_rand()</text></g></g><g transform="translate(-142,-206) scale(1,1)"><g><path fill="none" stroke="none"/><text fill="#000000" stroke="none" font-family="Arial" font-size="13px" font-style="normal" font-weight="normal" text-decoration="none" x="221" y="336.5">+uniform_rand()</text></g></g><g transform="translate(-142,-206) scale(1,1)"><rect fill="#C0C0C0" stroke="none" x="223" y="391" width="160" height="128" opacity="0.2"/></g><g transform="translate(-142,-206) scale(1,1)"><rect fill="#ffffff" stroke="none" x="216" y="384" width="160" height="128"/></g><g transform="translate(-142,-206) scale(1,1)"><path fill="none" stroke="#000000" d="M 216 384 L 376 384 L 376 512 L 216 512 L 216 384 Z Z" stroke-miterlimit="10"/></g><g transform="translate(-142,-206) scale(1,1)"><path fill="none" stroke="#000000" d="M 216 409 L 376 409" stroke-miterlimit="10"/></g><g transform="translate(-142,-206) scale(1,1)"><path fill="none" stroke="#000000" d="M 216 419 L 376 419" stroke-miterlimit="10"/></g><g transform="translate(-142,-206) scale(1,1)"><g><path fill="none" stroke="none"/><text fill="#000000" stroke="none" font-family="Arial" font-size="13px" font-style="normal" font-weight="bold" text-decoration="none" x="259.5" y="403.5">MatchResult</text></g></g><g transform="translate(-142,-206) scale(1,1)"><path fill="none" stroke="#000000" d="M 604 799 L 604 668" stroke-miterlimit="10"/></g><g transform="translate(-142,-206) scale(1,1)"><path fill="#000000" stroke="none" d="M 608.209517756016 678.1626748576241 L 604 668 L 599.790482243984 678.1626748576241 L 604 690"/></g><g transform="translate(-142,-206) scale(1,1)"><path fill="none" stroke="#000000" d="M 608.209517756016 678.1626748576241 L 604 668 L 599.790482243984 678.1626748576241 L 604 690 L 608.209517756016 678.1626748576241" stroke-miterlimit="10"/></g><g transform="translate(-142,-206) scale(1,1)"><path fill="none" stroke="#000000" d="M 604 551 L 604 345" stroke-miterlimit="10"/></g><g transform="translate(-142,-206) scale(1,1)"><g><path fill="none" stroke="none"/><text fill="#000000" stroke="none" font-family="Arial" font-size="13px" font-style="normal" font-weight="normal" text-decoration="none" x="480.5" y="453.5">+确定一场比赛参赛队后可以开始比赛</text></g></g><g transform="translate(-142,-206) scale(1,1)"><path fill="none" stroke="#000000" d="M 377 406 L 519 332" stroke-miterlimit="10"/></g><g transform="translate(-142,-206) scale(1,1)"><path fill="#FFFFFF" stroke="none" d="M 511.9330469281237 340.42960107477796 L 519 332 L 508.04228147787626 332.9635376432221 L 499.49023605382246 342.16706008462774"/></g><g transform="translate(-142,-206) scale(1,1)"><path fill="none" stroke="#000000" d="M 511.9330469281237 340.42960107477796 L 519 332 L 508.04228147787626 332.9635376432221 L 499.49023605382246 342.16706008462774 L 511.9330469281237 340.42960107477796" stroke-miterlimit="10"/></g><g transform="translate(-142,-206) scale(1,1)"><g><path fill="none" stroke="none"/><text fill="#000000" stroke="none" font-family="Arial" font-size="13px" font-style="normal" font-weight="normal" text-decoration="none" x="397.5" y="361.5">+记录比赛结果</text></g></g><g transform="translate(-142,-206) scale(1,1)"><path fill="none" stroke="#000000" d="M 377 284 L 519 286" stroke-miterlimit="10" stroke-dasharray="3"/></g><g transform="translate(-142,-206) scale(1,1)"><path fill="none" stroke="#000000" d="M 508.77904989162334 290.0659782195771 L 519 286 L 508.89761609697774 281.64777763941726" stroke-miterlimit="10"/></g><g transform="translate(-142,-206) scale(1,1)"><g><path fill="none" stroke="none"/><text fill="#000000" stroke="none" font-family="Arial" font-size="13px" font-style="normal" font-weight="normal" text-decoration="none" x="411.5" y="276.5">+产生随机数</text></g></g><g transform="translate(-142,-206) scale(1,1)"><rect fill="#C0C0C0" stroke="none" x="895" y="223" width="184" height="144" opacity="0.2"/></g><g transform="translate(-142,-206) scale(1,1)"><rect fill="#ffffff" stroke="none" x="888" y="216" width="184" height="144"/></g><g transform="translate(-142,-206) scale(1,1)"><path fill="none" stroke="#000000" d="M 888 216 L 1072 216 L 1072 360 L 888 360 L 888 216 Z Z" stroke-miterlimit="10"/></g><g transform="translate(-142,-206) scale(1,1)"><path fill="none" stroke="#000000" d="M 888 241 L 1072 241" stroke-miterlimit="10"/></g><g transform="translate(-142,-206) scale(1,1)"><path fill="none" stroke="#000000" d="M 888 279 L 1072 279" stroke-miterlimit="10"/></g><g transform="translate(-142,-206) scale(1,1)"><g><path fill="none" stroke="none"/><text fill="#000000" stroke="none" font-family="Arial" font-size="13px" font-style="normal" font-weight="bold" text-decoration="none" x="962.5" y="235.5">Game</text></g></g><g transform="translate(-142,-206) scale(1,1)"><g><path fill="none" stroke="none"/><text fill="#000000" stroke="none" font-family="Arial" font-size="13px" font-style="normal" font-weight="normal" text-decoration="none" x="893" y="258.5">+teams</text></g></g><g transform="translate(-142,-206) scale(1,1)"><g><path fill="none" stroke="none"/><text fill="#000000" stroke="none" font-family="Arial" font-size="13px" font-style="normal" font-weight="normal" text-decoration="none" x="893" y="273.5">+matches</text></g></g><g transform="translate(-142,-206) scale(1,1)"><g><path fill="none" stroke="none"/><text fill="#000000" stroke="none" font-family="Arial" font-size="13px" font-style="normal" font-weight="normal" text-decoration="none" x="893" y="296.5">+playGame()</text></g></g><g transform="translate(-142,-206) scale(1,1)"><path fill="none" stroke="#000000" d="M 689 288 L 887 288" stroke-miterlimit="10"/></g><g transform="translate(-142,-206) scale(1,1)"><path fill="#000000" stroke="none" d="M 876.8373251423759 292.209517756016 L 887 288 L 876.8373251423758 283.790482243984 L 865 288"/></g><g transform="translate(-142,-206) scale(1,1)"><path fill="none" stroke="#000000" d="M 876.8373251423759 292.209517756016 L 887 288 L 876.8373251423758 283.790482243984 L 865 288 L 876.8373251423759 292.209517756016" stroke-miterlimit="10"/></g><g transform="translate(-142,-206) scale(1,1)"><path fill="none" stroke="#000000" d="M 672 551 L 894 361" stroke-miterlimit="10"/></g><g transform="translate(-142,-206) scale(1,1)"><path fill="#000000" stroke="none" d="M 889.0161584664775 370.80618802434134 L 894 361 L 883.541869805685 364.4099139048891 L 877.2857302446529 375.30500564646826"/></g><g transform="translate(-142,-206) scale(1,1)"><path fill="none" stroke="#000000" d="M 889.0161584664775 370.80618802434134 L 894 361 L 883.541869805685 364.4099139048891 L 877.2857302446529 375.30500564646826 L 889.0161584664775 370.80618802434134" stroke-miterlimit="10"/></g><g transform="translate(-142,-206) scale(1,1)"><rect fill="#C0C0C0" stroke="none" x="159" y="535" width="224" height="224" opacity="0.2"/></g><g transform="translate(-142,-206) scale(1,1)"><rect fill="#ffffff" stroke="none" x="152" y="528" width="224" height="224"/></g><g transform="translate(-142,-206) scale(1,1)"><path fill="none" stroke="#000000" d="M 152 528 L 376 528 L 376 752 L 152 752 L 152 528 Z Z" stroke-miterlimit="10"/></g><g transform="translate(-142,-206) scale(1,1)"><path fill="none" stroke="#000000" d="M 152 553 L 376 553" stroke-miterlimit="10"/></g><g transform="translate(-142,-206) scale(1,1)"><path fill="none" stroke="#000000" d="M 152 563 L 376 563" stroke-miterlimit="10"/></g><g transform="translate(-142,-206) scale(1,1)"><g><path fill="none" stroke="none"/><text fill="#000000" stroke="none" font-family="Arial" font-size="13px" font-style="normal" font-weight="bold" text-decoration="none" x="218" y="547.5">MatchSummary</text></g></g><g transform="translate(-142,-206) scale(1,1)"><g><path fill="none" stroke="none"/><text fill="#000000" stroke="none" font-family="Arial" font-size="13px" font-style="normal" font-weight="normal" text-decoration="none" x="157" y="580.5">+update()</text></g></g><g transform="translate(-142,-206) scale(1,1)"><g><path fill="none" stroke="none"/><text fill="#000000" stroke="none" font-family="Arial" font-size="13px" font-style="normal" font-weight="normal" text-decoration="none" x="157" y="595.5">+punish()</text></g></g><g transform="translate(-142,-206) scale(1,1)"><g><path fill="none" stroke="none"/><text fill="#000000" stroke="none" font-family="Arial" font-size="13px" font-style="normal" font-weight="normal" text-decoration="none" x="157" y="610.5">+merge()</text></g></g><g transform="translate(-142,-206) scale(1,1)"><g><path fill="none" stroke="none"/><text fill="#000000" stroke="none" font-family="Arial" font-size="13px" font-style="normal" font-weight="normal" text-decoration="none" x="157" y="625.5">+get()</text></g></g><g transform="translate(-142,-206) scale(1,1)"><g><path fill="none" stroke="none"/><text fill="#000000" stroke="none" font-family="Arial" font-size="13px" font-style="normal" font-weight="normal" text-decoration="none" x="157" y="640.5">+getPts()</text></g></g><g transform="translate(-142,-206) scale(1,1)"><g><path fill="none" stroke="none"/><text fill="#000000" stroke="none" font-family="Arial" font-size="13px" font-style="normal" font-weight="normal" text-decoration="none" x="157" y="655.5">+getGD()</text></g></g><g transform="translate(-142,-206) scale(1,1)"><g><path fill="none" stroke="none"/><text fill="#000000" stroke="none" font-family="Arial" font-size="13px" font-style="normal" font-weight="normal" text-decoration="none" x="157" y="670.5">+getGF()</text></g></g><g transform="translate(-142,-206) scale(1,1)"><g><path fill="none" stroke="none"/><text fill="#000000" stroke="none" font-family="Arial" font-size="13px" font-style="normal" font-weight="normal" text-decoration="none" x="157" y="685.5">+getPts_concern_card()</text></g></g><g transform="translate(-142,-206) scale(1,1)"><path fill="none" stroke="#000000" d="M 377 630 L 519 617" stroke-miterlimit="10"/></g><g transform="translate(-142,-206) scale(1,1)"><path fill="#FFFFFF" stroke="none" d="M 509.26342085739145 622.1184984712042 L 519 617 L 508.4958738842205 613.7345238411834 L 497.0916184999035 619.0056968978962"/></g><g transform="translate(-142,-206) scale(1,1)"><path fill="none" stroke="#000000" d="M 509.26342085739145 622.1184984712042 L 519 617 L 508.4958738842205 613.7345238411834 L 497.0916184999035 619.0056968978962 L 509.26342085739145 622.1184984712042" stroke-miterlimit="10"/></g><g transform="translate(-142,-206) scale(1,1)"><g><path fill="none" stroke="none"/><text fill="#000000" stroke="none" font-family="Arial" font-size="13px" font-style="normal" font-weight="normal" text-decoration="none" x="385.5" y="597.5">+记录赛统计况数据</text></g></g></g></svg>